<?xml version="1.0" encoding="UTF-8"?>
<svg xmlns="http://www.w3.org/2000/svg" version="1.1" viewBox="0 0 624.93 624.93">
  <!-- Generator: Adobe Illustrator 30.0.0, SVG Export Plug-In . SVG Version: 2.1.1 Build 123)  -->
  <defs>
    <style>
      .st0 {
        fill: #fcfcfc;
      }

      .st1, .st2, .st3 {
        fill: #fff;
      }

      .st4 {
        fill: none;
      }

      .st2 {
        letter-spacing: .07em;
      }

      .st2, .st3 {
        font-family: ArialRoundedMTBold, 'Arial Rounded MT Bold';
        font-size: 180px;
      }

      .st5 {
        display: none;
      }

      .st6 {
        fill: #fb7701;
      }
    </style>
  </defs>
  <g id="Layer_1">
    <rect class="st4" x="-20.87" y="-20.87" width="666.67" height="666.67"/>
    <path class="st0" d="M0,455.68V169.25c0-11.11,1.08-22.12,3.25-33.02,2.16-10.87,5.39-21.51,9.63-31.75,4.24-10.24,9.48-20.05,15.64-29.26,6.16-9.22,13.21-17.81,21.05-25.65,7.84-7.84,16.43-14.89,25.65-21.05,9.22-6.16,19.02-11.4,29.26-15.64,10.24-4.25,20.88-7.47,31.75-9.63C147.11,1.08,158.17,0,169.25,0h286.43c11.11,0,22.12,1.08,33.02,3.25,10.87,2.16,21.51,5.39,31.75,9.63,10.24,4.24,20.05,9.48,29.26,15.64,9.22,6.16,17.81,13.21,25.65,21.05,7.84,7.84,14.89,16.43,21.05,25.65,6.16,9.22,11.4,19.02,15.64,29.26,4.24,10.24,7.47,20.88,9.63,31.75,2.17,10.87,3.26,21.93,3.25,33.02v286.43c0,11.11-1.08,22.12-3.25,33.02-2.16,10.87-5.39,21.51-9.63,31.75-4.24,10.24-9.48,20.04-15.64,29.26-6.16,9.22-13.21,17.81-21.05,25.65-7.84,7.84-16.43,14.89-25.65,21.05-9.22,6.16-19.02,11.4-29.26,15.64-10.24,4.25-20.88,7.47-31.75,9.63-10.87,2.17-21.93,3.26-33.02,3.25H169.25c-11.11,0-22.12-1.08-33.02-3.25-10.87-2.16-21.51-5.38-31.75-9.63-10.24-4.24-20.04-9.48-29.26-15.64-9.22-6.16-17.81-13.21-25.65-21.05-7.84-7.84-14.89-16.43-21.05-25.65-6.16-9.22-11.4-19.02-15.64-29.26-4.25-10.24-7.47-20.88-9.63-31.75C1.09,477.83,0,466.77,0,455.68"/>
    <rect class="st4" x="0" y="0" width="624.94" height="624.94"/>
    <path class="st6" d="M138.9,0h347.13C562.7,0,624.94,62.24,624.94,138.9v347.13c0,76.66-62.24,138.9-138.9,138.9H138.9C62.24,624.94,0,562.7,0,486.04V138.9C0,62.24,62.24,0,138.9,0Z"/>
    <path class="st1" d="M145.92,184.61l-2.5.06c-10.44.67-17.58,5.19-21.6,11.29-4.7-7.02-13.49-11.96-26.73-11.23l-.31.43c-1.53,2.44-7.26,13.37,2.01,25.27,1.89,2.01,6.53,7.69,4.64,14.95l-26.91,43.52c-2.2,3.54-1.22,8.12,2.14,10.5,6.96,4.88,20.93,11.59,45.16,11.59s38.14-6.71,45.1-11.59l.92-.79c2.65-2.54,3.16-6.59,1.22-9.7l-26.85-43.52.18.79-.31-1.22c-1.46-6.53,2.2-11.72,4.21-14.04l.49-.49c9.34-11.9,3.54-22.76,2.01-25.27l-.24-.43-2.62-.12Z"/>
    <path class="st1" d="M233.07,205c-9.21-18.31-21.18-21.42-27.16-16.66-4.58,3.66-15.13,18.13-15.87,19.1-11.66,16.54-10.98,20.57,3.97,29.96,8.42,5.31,15.2-1.53,18.13-3.54-1.4,8.73-5.68,22.46-12.08,32.1-3.48-2.63-6.04-4.64-7.63-6.1-2.01-1.83-5.06-1.71-7.02.18-.92.91-1.41,2.18-1.34,3.48.06,1.27.6,2.48,1.53,3.36,15.56,14.22,36.01,22.27,57.8,22.34,21.85,0,42.42-8.06,57.98-22.34,2.01-1.83,2.07-4.88.24-6.84-1.91-1.94-5.01-2.02-7.02-.18-1.21,1.09-2.45,2.15-3.72,3.17l-6.83-15.26c-1.1-2.62-2.32-5.92-3.66-9.89.67-1.65,2.08-3.23,4.09-5.31,1.47-1.46,2.69-2.93,3.6-4.33,4.52-7.14,1.95-11.35.55-14.16-3.24-6.59-8.3-4.45-11.96-.55-4.52,4.76-8.91,6.84-15.99,8.42-5.92,1.34-10.5.67-14.28-1.71-5.25-3.23-13.31-15.26-13.31-15.26"/>
    <path class="st1" d="M402.3,186.38c-19.53,18.55-.79,58.89-36.31,76.04-3.91,1.89-7.14-4.33-12.39-4.33-14.83.12-43.15,13.18-44.25,19.77-.92,5.43,11.17,9.76,46.81,9.83,31,0,41.01-47.18,51.88-47.24,10.86,0,5.8,42.78,4.64,47.24h11.35c-.98-4.45-1.71-17.88-1.65-36.86,0-18.98,3.42-23.19,6.16-37.53,2.38-12.45-16.05-23.25-26.24-26.91"/>
    <path class="st1" d="M513.62,187.91h-31.8c-20.57,0-37.65,15.93-39.06,36.43l-2.32,32.9c-1.1,15.62,11.29,28.87,26.91,28.93h60.66c15.69,0,28.01-13.24,26.98-28.93l-2.32-32.9c-1.46-20.5-18.49-36.43-39.06-36.43"/>
    <path class="st1" d="M243.5,263.58c9.58,0,16.91,4.7,19.59,13.43-6.53,1.71-13.06,2.56-19.71,2.5-10.01,0-13.55-.91-19.96-2.62,2.56-7.69,11.05-13.31,20.08-13.31"/>
    <path class="st6" d="M483.29,215.19v.92c0,7.93,6.47,14.46,14.4,14.46s14.46-6.47,14.46-14.46v-.92c0-3.54,12.82-3.54,12.82,0v.92c0,15.01-12.21,27.22-27.28,27.22s-27.22-12.21-27.22-27.22v-.92c0-3.54,12.75-3.54,12.81,0"/>
  </g>
  <g id="Layer_3" class="st5">
    <path class="st1" d="M330.27,324.61h-8.3c-7.38,0-13.43,5.98-13.37,13.37v91.85c0,7.38,5.98,13.43,13.37,13.43s13.43-5.98,13.43-13.43v-60.3l22.58,31.86c4.7,6.59,14.46,6.59,19.22,0l22.58-31.86v60.3c0,7.38,5.98,13.43,13.43,13.43s13.43-5.98,13.37-13.43v-91.85c0-7.39-5.98-13.43-13.37-13.37h-8.3c-3.17,0-6.23,1.53-8.06,4.15l-29.23,43.94-29.29-43.94c-1.83-2.62-4.82-4.15-8.06-4.15"/>
    <path class="st1" d="M537.89,324.61c-7.38,0-13.43,5.98-13.43,13.37v56.09c0,17.64-9.95,26.67-26.3,26.61-16.36,0-26.3-9.34-26.24-27.4v-55.29c0-7.39-5.98-13.43-13.43-13.37-7.38,0-13.43,5.98-13.36,13.37v55.9c0,32.71,20.02,49.37,52.73,49.37s53.46-16.48,53.4-50.17v-55.11c0-7.39-5.98-13.43-13.37-13.37"/>
    <path class="st1" d="M161.4,324.61h-78.3c-7.39,0-13.43,5.98-13.43,13.37s5.98,13.43,13.43,13.43h25.75v78.3c0,7.38,5.98,13.43,13.37,13.43s13.43-5.98,13.43-13.43v-78.3h25.75c7.39,0,13.43-5.98,13.43-13.43s-5.98-13.43-13.43-13.37"/>
    <path class="st1" d="M277.3,324.61h-72.56c-7.38,0-13.43,5.98-13.43,13.37v91.73c0,7.38,5.98,13.43,13.43,13.43h72.56c7.38,0,13.43-5.98,13.37-13.43,0-7.38-5.98-13.43-13.37-13.43h-59.2v-19.04h51.51c7.38,0,13.43-5.98,13.43-13.37s-5.98-13.42-13.43-13.42h-51.51v-19.04h59.2c7.38,0,13.43-5.98,13.37-13.43,0-7.39-5.98-13.43-13.37-13.37"/>
  </g>
  <g id="Layer_2" class="st5">
    <text class="st3" transform="translate(65.01 443.69) scale(.98 1)"><tspan x="0" y="0">B</tspan></text>
    <text class="st3" transform="translate(181.97 445.79) scale(.98 1)"><tspan x="0" y="0">U</tspan></text>
    <text class="st3" transform="translate(304.93 445.79) scale(.98 1)"><tspan x="0" y="0">N</tspan></text>
    <text class="st3" transform="translate(470.47 445.41) scale(.98 1)"><tspan x="0" y="0">I</tspan></text>
  </g>
  <g id="Text_Combined">
    <text/>
    <text class="st2" transform="translate(61.59 441.69)"><tspan x="0" y="0">BUNI</tspan></text>
  </g>
</svg>